{
	"asset":{
		"version":"2.0",
		"generator":"Houdini GLTF 2.0 Exporter"
	},
	"accessors":[
		{
			"bufferView":0,
			"componentType":5123,
			"count":29376,
			"type":"SCALAR",
			"min":[0
			],
			"max":[29375
			]
		},
		{
			"bufferView":1,
			"componentType":5126,
			"count":29376,
			"type":"VEC3",
			"min":[-5.97411919,-1.12923205,-1.90531301
			],
			"max":[8.52422714,1.16695094,1.93424404
			]
		},
		{
			"bufferView":2,
			"componentType":5126,
			"count":29376,
			"type":"VEC2",
			"min":[0.0199260004,-0.00160205364
			],
			"max":[0.969057977,0.989561975
			]
		},
		{
			"bufferView":3,
			"componentType":5126,
			"count":29376,
			"type":"VEC3",
			"min":[-1,-1,-0.999792099
			],
			"max":[1,1,0.999792099
			]
		},
		{
			"bufferView":4,
			"componentType":5125,
			"count":804546,
			"type":"SCALAR",
			"min":[0
			],
			"max":[804545
			]
		},
		{
			"bufferView":5,
			"componentType":5126,
			"count":804546,
			"type":"VEC3",
			"min":[0.242327005,-2.59496188,-5.78825283
			],
			"max":[14.0040379,4.72480392,5.78825378
			]
		},
		{
			"bufferView":6,
			"componentType":5126,
			"count":804546,
			"type":"VEC2",
			"min":[-0.249336004,-0.129675984
			],
			"max":[1.11902297,1.085657
			]
		},
		{
			"bufferView":7,
			"componentType":5126,
			"count":804546,
			"type":"VEC3",
			"min":[-1,-1,-1
			],
			"max":[1,1,1
			]
		}
	],
	"buffers":[
		{
			"uri":"viper_test_data.bin",
			"byteLength":29962440,
			"name":"main_buffer"
		}
	],
	"bufferViews":[
		{
			"buffer":0,
			"byteLength":58752,
			"target":34963
		},
		{
			"buffer":0,
			"byteOffset":58752,
			"byteLength":352512,
			"target":34962
		},
		{
			"buffer":0,
			"byteOffset":411264,
			"byteLength":235008,
			"target":34962
		},
		{
			"buffer":0,
			"byteOffset":646272,
			"byteLength":352512,
			"target":34962
		},
		{
			"buffer":0,
			"byteOffset":998784,
			"byteLength":3218184,
			"target":34963
		},
		{
			"buffer":0,
			"byteOffset":4216968,
			"byteLength":9654552,
			"target":34962
		},
		{
			"buffer":0,
			"byteOffset":13871520,
			"byteLength":6436368,
			"target":34962
		},
		{
			"buffer":0,
			"byteOffset":20307888,
			"byteLength":9654552,
			"target":34962
		}
	],
	"nodes":[
		{
			"children":[1
			],
			"name":"Root"
		},
		{
			"name":"file1",
			"mesh":0
		}
	],
	"meshes":[
		{
			"primitives":[
				{
					"attributes":{
						"NORMAL":3,
						"TEXCOORD_0":2,
						"POSITION":1
					},
					"indices":0,
					"material":0
				},
				{
					"attributes":{
						"NORMAL":7,
						"TEXCOORD_0":6,
						"POSITION":5
					},
					"indices":4,
					"material":1
				}
			]
		}
	],
	"materials":[
		{
			"name":"principledshader1",
			"pbrMetallicRoughness":{
				"baseColorFactor":[0.200000003,0.200000003,0.200000003,1
				],
				"metallicFactor":0,
				"roughnessFactor":0.300000012,
				"baseColorTexture":{
					"index":0
				}
			}
		},
		{
			"name":"principledshader2",
			"pbrMetallicRoughness":{
				"baseColorFactor":[0.200000003,0.200000003,0.200000003,1
				],
				"metallicFactor":0,
				"roughnessFactor":0.300000012
			}
		}
	],
	"scenes":[
		{
			"nodes":[0
			]
		}
	],
	"textures":[
		{
			"source":0
		}
	],
	"images":[
		{
			"uri":"face.png",
			"mimeType":"image/png"
		}
	],
	"scene":0
}
